<svg xmlns="http://www.w3.org/2000/svg" viewBox="0 0 512 512"><title>integrity_file</title><path d="M354.681,399H108c-12.116,0-21.939-9.048-21.939-20.209V63.339c0-11.161,9.822-20.209,21.939-20.209H354.68c12.117,0,21.94,9.047,21.94,20.208V378.791C376.62,389.952,366.8,399,354.681,399Z" style="fill:#dcb67a;stroke:#231f20;stroke-miterlimit:10"/><path d="M393.694,367H147.252c-12.112,0-21.93-9.006-21.93-20.115V32.74c0-11.109,9.818-20.115,21.929-20.115H393.694c12.111,0,21.929,9.006,21.929,20.115V346.885C415.624,357.994,405.806,367,393.694,367Zm-37.257-95.625a20.5,20.5,0,1,0,20.5,20.5A20.5,20.5,0,0,0,356.437,271.375Z" style="fill:#cccccb;stroke:#231f20;stroke-miterlimit:10"/><path d="M369.5,97.5h-200v-27h200Zm0,28h-200v27h200Zm0,60h-200v27h200Zm-90,60h-110v27h110Z" style="fill:#fff;stroke:#231f20;stroke-miterlimit:10"/><path d="M317.705,399c-10.888.04-19.7,11.613-19.7,25.9v53.427c0,14.225,8.838,25.757,19.763,25.757h98.411c10.915,0,19.763-11.44,19.763-25.757l-1-53.427c0-14.2-7.81-25.864-18.708-25.9l0-61.815c0-34.416-21.755-56.849-47.87-58.127a10.871,10.871,0,0,0-5.957,1.393C359.538,282.1,356,285.457,356,292a11.672,11.672,0,0,0,7.023,10.932,10.348,10.348,0,0,0,4.311,1.045c14.378.267,26.916,17.117,26.666,49.1V399m-19.973,46.888v22.205a4.5,4.5,0,0,1-8.974,0V445.888a12.9,12.9,0,0,1-8.973-12.108c0-7.09,6.026-12.838,13.46-12.838S383,426.69,383,433.78A12.9,12.9,0,0,1,374.027,445.888Z" style="fill:#4677bc;fill-rule:evenodd"/></svg>