<svg xmlns="http://www.w3.org/2000/svg" viewBox="0 0 512 512"><title>nsri</title><path d="M426.931,115.061c-.15,59.526-.45,119.052,0,178.578a95.2,95.2,0,0,1-18.2,57.326,276.019,276.019,0,0,1-66.3,63.051,592.666,592.666,0,0,1-83,49.251,6.424,6.424,0,0,1-6.475.325,502.7,502.7,0,0,1-123.6-82.5A149.4,149.4,0,0,1,89.1,324.44a68.672,68.672,0,0,1-4.076-23.751v-90h0v-95.9a6.026,6.026,0,0,1,4.851-6.675q81-30,161.877-60.451a10.6,10.6,0,0,1,8.15,0q80.926,30.351,161.928,60.376A6.324,6.324,0,0,1,426.931,115.061Z" style="fill:#16655e"/><path d="M439.556,98.861Q349.4,65.46,259.378,31.685a8.926,8.926,0,0,0-6.85,0q-89.8,33.651-179.7,67.026a5.675,5.675,0,0,0-4.3,6.525v99.352h0v94.351A88.491,88.491,0,0,0,74.4,330.815a168.618,168.618,0,0,0,44.326,62.076,514.415,514.415,0,0,0,134.327,87.5,6.951,6.951,0,0,0,6.651-.525,589.831,589.831,0,0,0,74.626-41.4,332.874,332.874,0,0,0,80.726-69.551,112.832,112.832,0,0,0,28.426-71.077V104.661A5,5,0,0,0,439.556,98.861Zm-38.1,247.5a261.8,261.8,0,0,1-63.151,60,564.059,564.059,0,0,1-79.027,46.9,6.151,6.151,0,0,1-6.2.325,479.151,479.151,0,0,1-117.7-78.476,142.254,142.254,0,0,1-38.325-53.951,65.851,65.851,0,0,1-3.9-22.626v-85.8h0v-91.3a5.774,5.774,0,0,1,4.625-6.375q77.176-28.625,154.177-57.5a10,10,0,0,1,7.775,0q77.027,28.877,154.2,57.5a6,6,0,0,1,4.825,6.725c-.15,56.676-.4,113.377,0,170a90.476,90.476,0,0,1-17.3,54.526Z" style="fill:#024e41"/><path d="M384,256A128,128,0,1,0,256,384,127.99,127.99,0,0,0,384,256Zm-30.15-49.85-120.5,120.5h0l-8.6,8.6-66.6-66.6,29.4-29.4L224.8,276.5l99.7-99.7,29.35,29.35Z" style="fill:#43ad49"/></svg>